<svg xmlns="http://www.w3.org/2000/svg" width="1000" height="560" viewBox="0 0 1000 560" role="img" aria-labelledby="title desc"><title id="title">Proyecto de salón de ejemplo</title><desc id="desc">Ilustración esquemática de un salón reformado, utilizada en el entorno local de Diime.</desc><rect width="1000" height="560" fill="#e8ebe3"/><path d="M0 415h1000v145H0z" fill="#ccbaa1"/><rect x="635" y="50" width="255" height="290" fill="#f8f6ed"/><path d="M762 50v290M635 195h255" stroke="#b7bfb0" stroke-width="8"/><rect x="125" y="278" width="439" height="167" rx="35" fill="#819479"/><rect x="111" y="329" width="62" height="129" rx="20" fill="#687e63"/><rect x="511" y="329" width="62" height="129" rx="20" fill="#687e63"/><path d="M174 380h338M340 292v88" stroke="#637b60" stroke-width="4"/><rect x="150" y="447" width="16" height="32" fill="#655942"/><rect x="523" y="447" width="16" height="32" fill="#655942"/><ellipse cx="480" cy="480" rx="220" ry="35" fill="#eee7d8"/><ellipse cx="469" cy="446" rx="130" ry="21" fill="#ac8f6b"/><path d="M374 454v44m190-44v44" stroke="#7c684f" stroke-width="12"/><rect x="189" y="85" width="278" height="143" rx="2" fill="#f8f6ef"/><path d="M225 205l65-83 46 57 49-48 47 74" fill="#c1ceb2"/><path d="M800 408v-98" stroke="#6b8060" stroke-width="9"/><ellipse cx="776" cy="329" rx="43" ry="17" transform="rotate(32 776 329)" fill="#718a66"/><ellipse cx="825" cy="302" rx="45" ry="18" transform="rotate(-32 825 302)" fill="#8aa279"/><path d="M766 389h73l-12 75h-48z" fill="#bca280"/><rect x="34" y="22" width="206" height="30" rx="15" fill="#fff" fill-opacity=".8"/><text x="137" y="42" text-anchor="middle" font-family="Arial,sans-serif" font-size="13" fill="#46533f">PROYECTO DE EJEMPLO</text></svg>
